<?xml version="1.0" standalone="no"?>
<!DOCTYPE svg PUBLIC "-//W3C//DTD SVG 20010904//EN"
 "http://www.w3.org/TR/2001/REC-SVG-20010904/DTD/svg10.dtd">
<svg version="1.0" xmlns="http://www.w3.org/2000/svg"
 width="649.000000pt" height="605.000000pt" viewBox="0 0 649.000000 605.000000"
 preserveAspectRatio="xMidYMid meet">

<g transform="translate(0.000000,605.000000) scale(0.100000,-0.100000)"
fill="#000000" stroke="none">
<path d="M3350 5234 c-74 -10 -178 -34 -232 -54 -69 -26 -130 -78 -213 -185
-82 -105 -115 -134 -212 -184 -240 -125 -659 -553 -811 -829 -73 -134 -84
-180 -89 -402 -6 -222 6 -376 42 -556 41 -203 116 -397 198 -511 17 -24 28
-44 26 -46 -2 -1 -36 -28 -75 -59 -152 -121 -228 -242 -289 -463 -19 -66 -26
-80 -41 -77 -126 18 -199 10 -283 -31 -25 -13 -73 -29 -106 -36 -107 -23 -173
-74 -196 -151 -7 -23 -22 -43 -36 -51 -44 -23 -111 -107 -128 -160 -21 -63
-17 -189 7 -236 l16 -33 -152 0 c-193 0 -190 2 -195 -114 l-3 -86 -178 0 c-98
0 -190 -4 -204 -10 -28 -10 -34 -38 -14 -58 17 -17 5889 -17 5906 0 18 18 14
46 -7 58 -12 6 -104 10 -229 10 l-209 0 21 42 c17 34 21 61 21 134 0 81 -3 97
-30 149 -21 41 -46 71 -84 100 -37 28 -57 53 -66 80 -20 57 -72 103 -146 129
-60 22 -64 26 -67 57 -6 74 -45 258 -74 349 -57 179 -132 288 -282 410 l-64
51 40 59 c101 152 183 413 219 695 17 129 17 460 0 545 -43 220 -280 542 -611
833 -134 118 -195 162 -305 221 -87 47 -92 51 -180 161 -130 162 -183 197
-341 230 -79 16 -278 27 -344 19z m345 -104 c141 -26 197 -65 303 -211 50 -69
107 -117 189 -158 86 -43 221 -147 359 -276 268 -251 470 -527 508 -695 19
-86 30 -270 21 -365 l-7 -77 -34 104 c-41 122 -117 277 -178 362 -24 34 -80
96 -124 138 -68 65 -101 87 -196 133 -206 100 -538 198 -900 265 l-167 32
-119 -22 c-454 -80 -851 -204 -1046 -325 -169 -106 -320 -325 -414 -600 l-30
-90 3 210 c3 187 6 217 27 277 52 154 212 371 439 596 156 155 292 263 414
330 96 53 143 94 218 193 105 139 156 167 339 189 91 11 313 5 395 -10z
m-1492 -1366 c25 -8 66 -33 91 -55 l46 -40 -22 -30 c-12 -16 -26 -29 -31 -29
-5 0 -28 15 -51 34 -72 59 -127 69 -141 25 -11 -35 3 -66 60 -127 l55 -60 -26
-46 -26 -46 -39 31 c-21 17 -55 51 -75 75 l-36 44 57 107 c60 113 73 133 84
133 4 0 28 -7 54 -16z m2614 -26 c15 -24 44 -78 65 -121 l39 -77 -21 -29 c-30
-43 -122 -123 -130 -114 -13 15 -63 113 -59 116 121 92 129 100 129 132 0 68
-52 70 -139 4 l-53 -40 -29 27 c-28 26 -28 28 -11 47 37 41 129 94 169 96 7 1
25 -18 40 -41z m-830 -20 c90 -61 148 -161 141 -245 -5 -63 -40 -118 -152
-243 -90 -100 -108 -140 -79 -179 11 -14 45 -39 76 -56 89 -47 92 -52 92 -158
0 -83 -3 -98 -30 -151 -28 -54 -35 -61 -89 -82 -32 -13 -105 -35 -163 -50 -96
-24 -122 -26 -316 -26 -189 -1 -220 2 -282 21 -163 49 -266 171 -269 316 -1
75 17 120 55 135 15 7 40 24 54 38 24 24 25 30 19 81 -5 47 -19 76 -80 171
-91 143 -105 188 -79 256 10 27 26 59 35 71 15 20 17 20 27 4 6 -10 36 -29 67
-42 53 -23 56 -26 56 -62 0 -52 21 -98 59 -130 61 -51 134 -26 135 46 1 28 4
32 30 32 34 0 56 27 41 51 -6 8 -73 42 -150 76 -77 33 -142 62 -144 64 -7 7
108 -6 164 -18 28 -6 61 -19 74 -29 29 -23 98 -24 155 -4 35 12 42 12 75 -6
50 -27 64 -24 104 20 34 38 37 39 66 28 27 -10 37 -8 83 16 29 15 75 42 101
61 53 38 59 38 124 -6z m-2040 -410 c-3 -7 -5 -2 -5 12 0 14 2 19 5 13 2 -7 2
-19 0 -25z m56 -23 c20 -41 20 -45 8 -45 -5 0 -15 17 -22 38 l-12 37 -10 -35
c-4 -19 -13 -39 -18 -45 -5 -5 -5 6 2 25 6 19 12 41 15 48 6 21 20 13 37 -23z
m3015 -130 l-1 -50 -7 60 c-4 33 -10 80 -14 105 -6 43 -5 42 9 -10 8 -30 14
-77 13 -105z m-3081 113 c-3 -8 -6 -5 -6 6 -1 11 2 17 5 13 3 -3 4 -12 1 -19z
m2987 -27 c-4 -17 -9 -30 -11 -27 -3 2 -2 19 2 36 9 41 17 33 9 -9z m-3000
-94 c-5 -78 -3 -110 16 -191 15 -69 25 -94 31 -85 6 9 7 4 3 -15 -5 -21 -4
-27 5 -22 7 5 11 -2 11 -18 0 -14 5 -28 10 -31 6 -4 8 -10 5 -14 -4 -8 40
-100 91 -188 19 -34 28 -40 46 -36 23 5 23 5 3 -11 -19 -15 -22 -14 -48 17
-62 72 -123 209 -163 365 -25 98 -29 155 -18 261 10 95 16 72 8 -32z m103 -4
c-2 -16 -4 -3 -4 27 0 30 2 43 4 28 2 -16 2 -40 0 -55z m2893 -193 c6 0 10 5
10 10 0 6 9 10 20 10 16 0 20 7 20 34 0 40 17 57 22 24 3 -15 7 -7 12 25 5 26
12 47 17 47 16 0 10 -59 -16 -162 -35 -136 -88 -265 -147 -355 -41 -63 -51
-73 -64 -62 -13 10 -13 14 1 29 9 10 17 27 18 38 0 11 4 19 8 16 4 -2 17 20
29 49 13 28 34 77 48 107 14 30 25 67 25 82 0 15 6 29 14 32 7 3 13 17 13 31
0 14 5 25 10 25 6 0 10 4 10 9 0 4 -12 6 -26 3 -21 -4 -24 -9 -20 -28 7 -25
-9 -34 -17 -11 -3 8 -10 6 -21 -8 -17 -19 -17 -19 -5 5 7 14 15 81 18 150 l6
125 3 -112 c1 -64 7 -113 12 -113z m-2970 70 c0 -14 9 -49 19 -78 14 -37 16
-52 7 -52 -7 0 -18 28 -25 68 -7 37 -15 78 -18 92 -4 20 -2 22 6 10 6 -8 11
-26 11 -40z m92 -52 c2 -37 0 -62 -4 -55 -4 6 -7 44 -7 82 1 81 6 69 11 -27z
m2779 -180 c-4 -32 -5 -32 -11 -8 -5 19 2 37 16 40 0 0 -2 -15 -5 -32z m-2694
-25 c-3 -10 -5 -4 -5 12 0 17 2 24 5 18 2 -7 2 -21 0 -30z m2665 -58 c-9 -19
-21 -35 -25 -35 -8 0 8 35 26 58 17 22 17 13 -1 -23z m39 -54 c-12 -12 -21
-18 -21 -14 0 10 33 44 37 39 3 -2 -5 -14 -16 -25z m-2471 -141 l25 -8 -26 -1
c-32 -1 -67 -47 -50 -64 6 -6 11 -16 11 -21 0 -6 -4 -5 -9 2 -6 10 -16 3 -39
-28 -39 -53 -55 -127 -83 -370 -11 -102 -29 -243 -40 -314 -11 -71 -17 -139
-14 -150 3 -12 2 -15 -1 -8 -4 9 -13 -1 -25 -27 -10 -23 -21 -41 -25 -41 -4 0
-4 3 -1 7 4 3 0 11 -8 17 -7 6 -29 65 -47 131 -28 100 -37 119 -52 117 -14 -3
-16 1 -11 17 5 16 1 23 -20 31 -71 27 -58 -45 34 -190 l23 -35 -6 40 -6 40 15
-34 c9 -19 13 -41 11 -48 -3 -7 0 -12 6 -10 7 1 13 -9 13 -23 0 -14 3 -30 7
-35 3 -6 9 -26 13 -46 6 -34 5 -36 -19 -36 -22 0 -24 2 -14 14 14 18 -7 60
-60 115 -26 27 -38 34 -44 25 -6 -9 -8 -8 -8 3 0 8 -41 59 -90 113 -103 112
-100 94 -53 257 65 229 186 378 425 521 82 49 113 57 168 39z m2375 -35 c107
-63 181 -122 262 -208 100 -107 159 -241 203 -458 26 -125 26 -164 3 -154
-101 42 -230 48 -301 14 -25 -13 -48 -33 -55 -48 -6 -14 -40 -57 -74 -95 -35
-38 -63 -72 -63 -77 0 -5 -9 -13 -19 -19 -18 -9 -19 -8 -11 21 5 17 25 50 45
74 37 46 41 55 24 55 -5 0 -8 -4 -4 -9 3 -5 1 -12 -4 -16 -6 -3 -13 11 -16 32
-10 58 -13 62 -14 15 -1 -51 -22 -106 -46 -119 -9 -6 -16 -13 -16 -16 1 -4 1
-17 0 -29 -1 -20 -2 -19 -9 5 -5 16 -14 35 -21 43 -8 10 -10 39 -6 96 6 76 6
80 -9 60 -12 -17 -15 -45 -12 -131 2 -60 0 -107 -4 -104 -12 7 -9 308 2 338
18 48 24 230 10 291 -9 37 -16 51 -22 42 -6 -8 -7 0 -3 22 3 19 3 30 -2 24 -5
-8 -16 -3 -34 17 -15 16 -23 29 -19 29 4 0 13 -7 20 -15 7 -8 17 -15 22 -15
13 0 0 62 -15 75 -7 6 -12 16 -13 23 -3 34 -5 37 -17 21 -19 -25 -15 64 6 130
9 30 17 69 17 86 0 17 3 35 7 38 3 4 30 7 59 7 45 0 65 -7 129 -45z m-2388
-37 c-3 -8 -6 -5 -6 6 -1 11 2 17 5 13 3 -3 4 -12 1 -19z m83 -118 c23 -32 20
-55 -4 -29 -16 16 -36 75 -35 98 0 9 4 4 9 -11 4 -15 18 -41 30 -58z m-123 -2
c-3 -8 -6 -5 -6 6 -1 11 2 17 5 13 3 -3 4 -12 1 -19z m2163 -63 c-12 -23 -11
-28 11 -51 l24 -26 -45 24 c-26 13 -39 24 -30 26 9 1 21 16 29 33 7 17 16 28
19 25 3 -4 -1 -17 -8 -31z m-1982 -1 c25 -17 29 -34 8 -34 -16 0 -46 26 -46
41 0 13 13 11 38 -7z m-28 -59 c0 -2 -10 -9 -22 -15 -22 -11 -22 -10 -4 4 21
17 26 19 26 11z m1957 -52 c22 -12 51 -34 62 -49 21 -26 21 -36 21 -434 0
-398 0 -408 -21 -434 -11 -15 -40 -37 -62 -49 l-42 -22 -905 3 c-845 3 -908 5
-946 22 -22 9 -51 28 -62 41 -22 23 -22 27 -22 440 l0 417 31 31 c61 61 36 60
1014 58 l890 -2 42 -22z m-2027 -7 c0 -3 -4 -8 -10 -11 -5 -3 -10 -1 -10 4 0
6 5 11 10 11 6 0 10 -2 10 -4z m-27 -46 c-3 -11 -9 -20 -13 -20 -5 0 -6 9 -3
20 3 11 9 20 13 20 5 0 6 -9 3 -20z m-420 -331 c-4 -13 -9 -17 -16 -10 -12 12
-1 45 12 37 5 -3 7 -15 4 -27z m-412 -49 c-42 -42 -51 -84 -51 -232 0 -70 -4
-129 -9 -132 -19 -12 -71 46 -86 97 -19 65 -19 110 1 177 29 96 53 118 132
119 l44 1 -31 -30z m453 -2 c11 -42 5 -53 -9 -19 -18 39 -18 41 -6 41 5 0 11
-10 15 -22z m-34 -9 c0 -6 -4 -7 -10 -4 -5 3 -10 11 -10 16 0 6 5 7 10 4 6 -3
10 -11 10 -16z m-187 -51 c48 -59 87 -119 87 -132 0 -6 -8 3 -19 19 -22 35
-61 72 -114 108 -35 23 -37 26 -20 36 27 16 29 15 66 -31z m-516 -65 c-9 -89
-2 -181 19 -232 8 -19 12 -41 10 -48 -8 -20 -42 -15 -71 10 -33 28 -47 110
-38 216 5 65 10 80 34 103 48 48 56 39 46 -49z m3987 -70 c12 -29 27 -225 21
-257 -12 -57 -16 -66 -34 -66 -10 0 -26 9 -37 21 -16 17 -20 40 -22 132 -5
134 8 187 42 187 13 0 27 -8 30 -17z m-3247 -15 c-3 -8 -6 -5 -6 6 -1 11 2 17
5 13 3 -3 4 -12 1 -19z m-30 -10 c-3 -8 -6 -5 -6 6 -1 11 2 17 5 13 3 -3 4
-12 1 -19z m-78 -103 c1 -65 -22 -127 -57 -158 -26 -24 -85 -20 -90 6 -6 31
25 67 58 67 22 0 33 6 39 23 21 55 31 96 32 128 1 61 18 1 18 -66z m88 33 c-3
-7 -5 -2 -5 12 0 14 2 19 5 13 2 -7 2 -19 0 -25z m3483 -40 c16 -91 17 -217 1
-247 -25 -46 -101 1 -101 63 1 69 29 219 46 237 30 33 40 22 54 -53z m-4392
-105 c13 -24 6 -56 -12 -50 -17 6 -56 68 -56 91 0 11 8 41 17 66 l18 45 10
-65 c6 -36 17 -75 23 -87z m3589 117 c-1 -12 -5 -16 -10 -11 -5 5 -6 14 -3 20
11 16 15 13 13 -9z m381 -47 c4 -93 -7 -125 -50 -141 -35 -13 -38 -13 -65 12
-15 14 -36 29 -45 32 -24 7 -23 23 8 67 28 42 110 99 134 95 11 -2 16 -19 18
-65z m-2706 15 c-26 -26 -34 -30 -44 -20 -11 11 -10 12 2 7 10 -3 25 6 40 24
14 16 27 27 29 25 3 -3 -9 -19 -27 -36z m-345 -5 c-3 -10 -5 -4 -5 12 0 17 2
24 5 18 2 -7 2 -21 0 -30z m303 -39 c0 -8 -19 -13 -24 -6 -3 5 1 9 9 9 8 0 15
-2 15 -3z m-60 -48 c0 -8 -4 -17 -8 -20 -4 -2 -8 4 -8 15 0 10 4 19 8 19 4 0
8 -6 8 -14z m2387 -28 c-3 -7 -5 -2 -5 12 0 14 2 19 5 13 2 -7 2 -19 0 -25z
m-2428 -9 c-16 -10 -23 -4 -14 10 3 6 11 8 17 5 6 -4 5 -9 -3 -15z m-24 -27
c-8 -8 -25 10 -19 20 4 6 9 5 15 -3 4 -7 6 -15 4 -17z m206 3 c5 3 6 0 3 -8
-3 -8 2 -20 11 -27 8 -7 15 -16 15 -21 0 -15 -18 -10 -44 14 -20 16 -24 28
-20 46 6 20 8 21 16 7 5 -9 13 -14 19 -11z m2219 -1 c0 -15 -4 -23 -11 -19 -6
4 -17 -1 -25 -11 -17 -21 -8 -2 16 34 19 28 20 28 20 -4z m-2270 12 c0 -2 -8
-10 -17 -17 -16 -13 -17 -12 -4 4 13 16 21 21 21 13z m2297 -58 c-2 -13 -4 -3
-4 22 0 25 2 35 4 23 2 -13 2 -33 0 -45z m1003 -3 c0 -69 -26 -153 -42 -137
-24 24 1 202 28 202 11 0 14 -16 14 -65z m-3194 -13 c-4 -3 -13 3 -21 14 -22
28 -18 37 6 13 11 -11 18 -23 15 -27z m-139 32 c-3 -3 -12 -4 -19 -1 -8 3 -5
6 6 6 11 1 17 -2 13 -5z m2617 -49 c22 -33 21 -35 -21 -35 -58 0 -68 10 -52
53 12 34 13 35 35 20 12 -8 30 -25 38 -38z m203 -55 c28 -13 33 -20 33 -52 l0
-38 -86 0 -85 0 15 22 c10 13 16 44 16 75 0 69 23 86 54 39 12 -17 36 -38 53
-46z m-2837 -30 l0 -60 -800 0 -800 0 0 55 0 55 233 3 c127 1 487 3 800 5
l567 2 0 -60z m2240 -4 l0 -55 -1030 0 -1030 0 0 52 0 52 1030 3 1030 2 0 -54z
m780 9 c22 -14 46 -25 55 -25 8 0 15 -9 15 -20 0 -18 -7 -20 -75 -20 l-75 0 0
39 c0 35 8 48 33 50 4 1 25 -10 47 -24z m-2933 -57 c-2 -13 -4 -3 -4 22 0 25
2 35 4 23 2 -13 2 -33 0 -45z m2245 22 c2 -22 0 -40 -4 -40 -5 0 -8 18 -8 40
0 22 2 40 4 40 2 0 6 -18 8 -40z m862 -31 c-11 -18 -24 -8 -24 19 1 26 1 26
15 8 8 -10 12 -23 9 -27z m-747 -5 c-3 -3 -12 -4 -19 -1 -8 3 -5 6 6 6 11 1
17 -2 13 -5z"/>
<path d="M3000 4935 c0 -22 -127 -138 -192 -177 -38 -23 -65 -45 -61 -51 3 -6
1 -7 -6 -3 -11 7 -170 -101 -171 -116 0 -3 8 -9 18 -12 14 -4 14 -5 -3 -4 -37
1 -45 -2 -45 -15 0 -7 -14 -26 -32 -43 -25 -23 -30 -25 -24 -9 5 14 -3 10 -28
-14 -36 -35 -45 -48 -25 -35 7 4 10 0 7 -11 -4 -25 -36 -44 -46 -28 -10 16
-128 -88 -148 -131 -8 -17 -12 -22 -9 -11 4 14 -4 9 -30 -17 -20 -21 -34 -41
-31 -46 3 -5 -4 -18 -17 -28 l-22 -19 20 25 20 25 -27 -24 c-38 -33 -130 -169
-126 -183 3 -7 13 2 23 20 19 32 45 50 45 31 0 -6 -12 -26 -26 -44 -21 -28
-30 -33 -44 -25 -15 8 -22 1 -45 -47 -33 -71 -75 -199 -74 -227 1 -19 2 -19
10 4 6 18 7 12 4 -25 -5 -64 -6 -66 -14 -30 -6 26 -9 20 -15 -35 -4 -36 -6
-81 -4 -100 3 -35 3 -34 23 23 16 47 17 60 6 66 -9 6 -7 10 11 15 17 5 35 30
68 99 24 50 53 102 63 114 11 12 16 27 12 34 -5 7 -4 10 3 5 8 -5 40 32 34 41
0 1 36 37 81 80 45 43 97 93 115 110 19 18 64 47 100 65 37 17 72 38 78 46 7
10 18 13 29 8 21 -8 88 12 80 23 -2 5 7 6 22 3 16 -3 24 -1 20 5 -4 6 7 14 26
18 17 4 35 9 40 10 4 1 10 4 15 5 4 1 15 1 26 0 17 -2 77 13 286 68 l75 20
-53 1 c-66 1 -61 20 6 22 43 1 44 2 17 9 -25 7 -22 8 20 7 37 -2 49 -6 47 -16
-2 -11 7 -12 45 -7 26 4 65 10 86 13 20 3 40 9 43 14 3 5 -10 6 -28 3 -25 -4
-29 -3 -18 5 19 14 73 14 65 1 -8 -13 -1 -12 60 4 l50 13 -85 2 c-47 0 -150
-6 -230 -14 -80 -8 -213 -15 -295 -15 -130 0 -156 3 -189 19 l-38 20 18 -21
19 -21 -27 17 c-30 20 -48 52 -23 42 11 -4 15 1 15 20 0 14 6 37 14 52 7 15
12 35 11 44 -4 21 11 33 20 18 4 -6 23 3 48 23 104 84 274 141 459 154 l93 6
-60 13 c-33 6 -61 8 -63 3 -2 -5 -9 -9 -14 -9 -6 0 -8 3 -5 6 11 11 -14 46
-29 40 -7 -3 -13 -2 -12 2 2 4 -5 16 -14 27 -10 11 -24 29 -32 40 -9 11 -16
15 -16 10z m-63 -141 c-3 -3 -12 -4 -19 -1 -8 3 -5 6 6 6 11 1 17 -2 13 -5z
m-247 -139 c-13 -14 -26 -23 -28 -20 -7 6 29 44 42 44 5 1 -1 -10 -14 -24z
m-215 -175 c3 -5 -1 -10 -10 -10 -9 0 -13 5 -10 10 3 6 8 10 10 10 2 0 7 -4
10 -10z m195 -70 c12 -8 11 -10 -7 -10 -13 0 -23 5 -23 10 0 13 11 13 30 0z
m-381 -111 c-16 -10 -23 -4 -14 10 3 6 11 8 17 5 6 -4 5 -9 -3 -15z m-164
-189 c-10 -11 -20 -18 -23 -15 -7 6 18 35 31 35 5 0 2 -9 -8 -20z m-162 -295
c-21 -28 -33 -32 -33 -10 0 8 5 15 11 15 5 0 8 4 5 9 -3 4 2 28 12 52 l17 44
3 -42 c2 -29 -3 -51 -15 -68z"/>
<path d="M3915 3668 c-11 -7 -85 -40 -164 -74 -79 -34 -148 -69 -153 -78 -15
-27 9 -59 42 -54 16 2 27 1 24 -4 -3 -5 -2 -22 1 -39 9 -42 57 -71 95 -58 60
21 118 115 105 170 -4 21 2 27 55 51 63 28 80 49 63 77 -13 20 -42 24 -68 9z"/>
<path d="M3175 3309 c-86 -47 -125 -99 -125 -166 0 -39 68 -99 135 -119 71
-20 89 -14 42 14 -50 32 -97 88 -97 118 0 28 41 71 77 80 41 11 72 -5 110 -55
53 -69 101 -95 166 -88 47 4 55 9 119 76 78 80 101 87 159 48 25 -17 35 -31
37 -56 4 -39 -17 -66 -90 -112 -58 -38 -62 -54 -10 -44 60 11 131 46 157 77
31 37 33 99 5 145 -26 44 -114 93 -165 93 -53 -1 -73 -13 -140 -87 -77 -86
-98 -86 -180 1 -33 35 -70 69 -82 75 -28 14 -92 14 -118 0z"/>
<path d="M3192 3187 c-12 -13 -22 -33 -22 -44 0 -37 110 -113 144 -100 29 12
10 104 -31 149 -22 25 -65 23 -91 -5z"/>
<path d="M3649 3189 c-11 -11 -27 -36 -35 -55 -42 -100 14 -126 104 -49 47 41
54 73 22 105 -26 26 -65 25 -91 -1z"/>
<path d="M2962 2918 c-18 -18 -15 -38 17 -94 36 -63 89 -110 138 -123 51 -14
70 -14 131 4 l52 16 39 -31 c21 -17 59 -37 85 -45 43 -13 52 -13 99 5 29 11
65 30 81 43 28 23 30 23 97 8 56 -12 76 -12 110 -2 51 15 122 79 149 135 28
58 26 84 -5 92 -27 7 -55 -9 -55 -31 0 -25 -62 -97 -97 -111 -42 -18 -68 -14
-178 28 -74 28 -87 30 -180 26 -78 -3 -109 -9 -142 -26 -23 -12 -65 -27 -92
-33 -80 -17 -111 4 -185 124 -17 29 -44 35 -64 15z"/>
<path d="M4755 1770 c3 -5 2 -10 -4 -10 -15 0 -33 -67 -26 -99 9 -41 29 -56
48 -36 19 18 31 20 21 3 -5 -8 -1 -8 10 1 10 8 15 23 13 33 -3 10 -1 16 4 12
15 -9 10 60 -7 84 -15 21 -72 33 -59 12z"/>
<path d="M3096 1704 c-25 -25 -19 -57 19 -94 26 -26 35 -42 35 -68 0 -168 269
-293 508 -237 169 40 296 160 237 225 -17 19 -31 20 -175 19 -176 0 -206 7
-270 65 -54 48 -117 70 -188 64 -49 -5 -62 -2 -92 18 -40 28 -53 30 -74 8z
m80 -60 c43 -34 55 -54 34 -54 -13 0 -90 70 -90 81 0 16 12 10 56 -27z m166
-43 c13 -5 43 -25 67 -45 76 -64 99 -70 263 -70 80 -1 144 -4 141 -8 -2 -5
-12 -8 -21 -9 -10 -1 -7 -4 8 -8 24 -7 23 -8 -24 -36 -144 -85 -344 -85 -472
-1 -45 31 -84 83 -84 114 0 22 22 24 43 4 30 -27 97 -68 127 -77 16 -4 7 5
-23 25 -45 30 -107 96 -107 112 0 11 53 10 82 -1z"/>
<path d="M1623 3 c896 -2 2358 -2 3250 0 892 1 160 2 -1628 2 -1787 0 -2517
-1 -1622 -2z"/>
</g>
</svg>
